HIERARCHY
ROOT Hips
{
	OFFSET 0.000000 100.481300 0.000000
	CHANNELS 6 Xposition Yposition Zposition Xrotation Yrotation Zrotation
	JOINT Spine
	{
		OFFSET -0.279200 12.230698 -2.892100
		CHANNELS 3 Xrotation Yrotation Zrotation
		JOINT Spine1
		{
			OFFSET -0.325700 14.269203 -3.374200
			CHANNELS 3 Xrotation Yrotation Zrotation
			JOINT Spine2
			{
				OFFSET -0.372300 16.307602 -0.352600
				CHANNELS 3 Xrotation Yrotation Zrotation
				JOINT Neck
				{
					OFFSET -0.418800 17.814194 8.416900
					CHANNELS 3 Xrotation Yrotation Zrotation
					JOINT Head
					{
						OFFSET 0.000000 7.031097 3.806800
						CHANNELS 3 Xrotation Yrotation Zrotation
						JOINT HeadTop_End
						{
							OFFSET 0.000000 24.646606 12.978600
							CHANNELS 3 Xrotation Yrotation Zrotation
							End Site
							{
								OFFSET 0.000000 27.854965 0.000000
							}
						}
					}
				}
				JOINT LeftShoulder
				{
					OFFSET 16.952999 14.495407 -7.737500
					CHANNELS 3 Xrotation Yrotation Zrotation
					JOINT LeftArm
					{
						OFFSET 9.308998 -2.777710 0.208600
						CHANNELS 3 Xrotation Yrotation Zrotation
						JOINT LeftForeArm
						{
							OFFSET 29.972298 0.000000 0.000000
							CHANNELS 3 Xrotation Yrotation Zrotation
							JOINT LeftHand
							{
								OFFSET 26.026505 0.000000 0.000000
								CHANNELS 3 Xrotation Yrotation Zrotation
								JOINT LeftHandThumb1
								{
									OFFSET 12.240501 -7.147949 9.207150
									CHANNELS 3 Xrotation Yrotation Zrotation
									JOINT LeftHandThumb2
									{
										OFFSET 4.138618 -2.389435 2.389433
										CHANNELS 3 Xrotation Yrotation Zrotation
										JOINT LeftHandThumb3
										{
											OFFSET 2.726913 -1.574387 1.574386
											CHANNELS 3 Xrotation Yrotation Zrotation
											JOINT LeftHandThumb4
											{
												OFFSET 3.941010 -2.275345 2.275342
												CHANNELS 3 Xrotation Yrotation Zrotation
												End Site
												{
													OFFSET -0.005798 5.087799 0.009903
												}
											}
										}
									}
								}
								JOINT LeftHandIndex1
								{
									OFFSET 24.424698 -1.985611 5.953459
									CHANNELS 3 Xrotation Yrotation Zrotation
									JOINT LeftHandIndex2
									{
										OFFSET 6.426697 0.000000 0.000000
										CHANNELS 3 Xrotation Yrotation Zrotation
										JOINT LeftHandIndex3
										{
											OFFSET 5.337898 0.000000 0.000000
											CHANNELS 3 Xrotation Yrotation Zrotation
											JOINT LeftHandIndex4
											{
												OFFSET 4.409401 0.000000 0.000000
												CHANNELS 3 Xrotation Yrotation Zrotation
												End Site
												{
													OFFSET 0.000000 4.409363 0.014373
												}
											}
										}
									}
								}
								JOINT LeftHandMiddle1
								{
									OFFSET 23.810104 0.000000 0.000000
									CHANNELS 3 Xrotation Yrotation Zrotation
									JOINT LeftHandMiddle2
									{
										OFFSET 7.176498 0.000000 0.000000
										CHANNELS 3 Xrotation Yrotation Zrotation
										JOINT LeftHandMiddle3
										{
											OFFSET 6.774902 0.000000 0.000000
											CHANNELS 3 Xrotation Yrotation Zrotation
											JOINT LeftHandMiddle4
											{
												OFFSET 5.403328 0.000000 0.000000
												CHANNELS 3 Xrotation Yrotation Zrotation
												End Site
												{
													OFFSET -0.027702 5.403244 0.017414
												}
											}
										}
									}
								}
								JOINT LeftHandRing1
								{
									OFFSET 22.908401 -0.839279 -6.020567
									CHANNELS 3 Xrotation Yrotation Zrotation
									JOINT LeftHandRing2
									{
										OFFSET 6.337502 0.000000 0.000000
										CHANNELS 3 Xrotation Yrotation Zrotation
										JOINT LeftHandRing3
										{
											OFFSET 5.779297 0.000000 0.000000
											CHANNELS 3 Xrotation Yrotation Zrotation
											JOINT LeftHandRing4
											{
												OFFSET 4.965698 0.000000 0.000000
												CHANNELS 3 Xrotation Yrotation Zrotation
												End Site
												{
													OFFSET 0.000000 4.965668 0.016186
												}
											}
										}
									}
								}
								JOINT LeftHandPinky1
								{
									OFFSET 20.037003 -1.530319 -10.950146
									CHANNELS 3 Xrotation Yrotation Zrotation
									JOINT LeftHandPinky2
									{
										OFFSET 5.254700 0.000000 0.000000
										CHANNELS 3 Xrotation Yrotation Zrotation
										JOINT LeftHandPinky3
										{
											OFFSET 4.810204 0.000000 0.000000
											CHANNELS 3 Xrotation Yrotation Zrotation
											JOINT LeftHandPinky4
											{
												OFFSET 3.647202 0.000000 0.000000
												CHANNELS 3 Xrotation Yrotation Zrotation
												End Site
												{
													OFFSET 0.000000 3.647186 0.011889
												}
											}
										}
									}
								}
							}
						}
					}
				}
				JOINT RightShoulder
				{
					OFFSET -15.141001 14.495407 -7.737500
					CHANNELS 3 Xrotation Yrotation Zrotation
					JOINT RightArm
					{
						OFFSET -9.308998 -2.777710 0.208500
						CHANNELS 3 Xrotation Yrotation Zrotation
						JOINT RightForeArm
						{
							OFFSET -29.972300 0.000000 0.000000
							CHANNELS 3 Xrotation Yrotation Zrotation
							JOINT RightHand
							{
								OFFSET -26.026505 0.000000 0.000000
								CHANNELS 3 Xrotation Yrotation Zrotation
								JOINT RightHandThumb1
								{
									OFFSET -12.240601 -7.148026 9.207092
									CHANNELS 3 Xrotation Yrotation Zrotation
									JOINT RightHandThumb2
									{
										OFFSET -4.138618 -2.389435 2.389433
										CHANNELS 3 Xrotation Yrotation Zrotation
										JOINT RightHandThumb3
										{
											OFFSET -2.726974 -1.574417 1.574421
											CHANNELS 3 Xrotation Yrotation Zrotation
											JOINT RightHandThumb4
											{
												OFFSET -3.941010 -2.275345 2.275343
												CHANNELS 3 Xrotation Yrotation Zrotation
												End Site
												{
													OFFSET 0.005814 5.087799 0.009927
												}
											}
										}
									}
								}
								JOINT RightHandIndex1
								{
									OFFSET -24.424698 -1.985657 5.953444
									CHANNELS 3 Xrotation Yrotation Zrotation
									JOINT RightHandIndex2
									{
										OFFSET -6.426697 0.000000 0.000000
										CHANNELS 3 Xrotation Yrotation Zrotation
										JOINT RightHandIndex3
										{
											OFFSET -5.337898 0.000000 0.000000
											CHANNELS 3 Xrotation Yrotation Zrotation
											JOINT RightHandIndex4
											{
												OFFSET -4.409401 0.000000 0.000000
												CHANNELS 3 Xrotation Yrotation Zrotation
												End Site
												{
													OFFSET 0.000000 4.409363 0.014408
												}
											}
										}
									}
								}
								JOINT RightHandMiddle1
								{
									OFFSET -23.810097 0.000000 0.000000
									CHANNELS 3 Xrotation Yrotation Zrotation
									JOINT RightHandMiddle2
									{
										OFFSET -7.176498 0.000000 0.000000
										CHANNELS 3 Xrotation Yrotation Zrotation
										JOINT RightHandMiddle3
										{
											OFFSET -6.774902 0.000000 0.000000
											CHANNELS 3 Xrotation Yrotation Zrotation
											JOINT RightHandMiddle4
											{
												OFFSET -5.403328 0.000000 0.000000
												CHANNELS 3 Xrotation Yrotation Zrotation
												End Site
												{
													OFFSET 0.027702 5.403244 0.017457
												}
											}
										}
									}
								}
								JOINT RightHandRing1
								{
									OFFSET -22.908302 -0.839325 -6.020576
									CHANNELS 3 Xrotation Yrotation Zrotation
									JOINT RightHandRing2
									{
										OFFSET -6.337502 0.000000 0.000000
										CHANNELS 3 Xrotation Yrotation Zrotation
										JOINT RightHandRing3
										{
											OFFSET -5.779297 0.000000 0.000000
											CHANNELS 3 Xrotation Yrotation Zrotation
											JOINT RightHandRing4
											{
												OFFSET -4.965698 0.000000 0.000000
												CHANNELS 3 Xrotation Yrotation Zrotation
												End Site
												{
													OFFSET 0.000000 4.965668 0.016226
												}
											}
										}
									}
								}
								JOINT RightHandPinky1
								{
									OFFSET -20.037003 -1.530334 -10.950259
									CHANNELS 3 Xrotation Yrotation Zrotation
									JOINT RightHandPinky2
									{
										OFFSET -5.254700 0.000000 0.000000
										CHANNELS 3 Xrotation Yrotation Zrotation
										JOINT RightHandPinky3
										{
											OFFSET -4.810204 0.000000 0.000000
											CHANNELS 3 Xrotation Yrotation Zrotation
											JOINT RightHandPinky4
											{
												OFFSET -3.647202 0.000000 0.000000
												CHANNELS 3 Xrotation Yrotation Zrotation
												End Site
												{
													OFFSET 0.000000 3.647186 0.011917
												}
											}
										}
									}
								}
							}
						}
					}
				}
			}
		}
	}
	JOINT LeftUpLeg
	{
		OFFSET 15.427100 -6.655098 0.678600
		CHANNELS 3 Xrotation Yrotation Zrotation
		JOINT LeftLeg
		{
			OFFSET 4.081073 -39.591068 13.024000
			CHANNELS 3 Xrotation Yrotation Zrotation
			JOINT LeftFoot
			{
				OFFSET -4.081074 -37.707932 -15.979700
				CHANNELS 3 Xrotation Yrotation Zrotation
				JOINT LeftToeBase
				{
					OFFSET 5.346399 -15.068900 20.645000
					CHANNELS 3 Xrotation Yrotation Zrotation
					JOINT LeftToe_End
					{
						OFFSET 2.754700 0.931300 11.300900
						CHANNELS 3 Xrotation Yrotation Zrotation
						End Site
						{
							OFFSET 0.000000 11.669021 0.000000
						}
					}
				}
			}
		}
	}
	JOINT RightUpLeg
	{
		OFFSET -15.569500 -6.655098 0.678600
		CHANNELS 3 Xrotation Yrotation Zrotation
		JOINT RightLeg
		{
			OFFSET -4.081825 -39.591045 13.023800
			CHANNELS 3 Xrotation Yrotation Zrotation
			JOINT RightFoot
			{
				OFFSET 4.081824 -37.707954 -15.979600
				CHANNELS 3 Xrotation Yrotation Zrotation
				JOINT RightToeBase
				{
					OFFSET -5.346400 -15.068900 20.645000
					CHANNELS 3 Xrotation Yrotation Zrotation
					JOINT RightToe_End
					{
						OFFSET -2.754700 0.931300 11.300900
						CHANNELS 3 Xrotation Yrotation Zrotation
						End Site
						{
							OFFSET 0.000000 11.669021 0.000000
						}
					}
				}
			}
		}
	}
}
MOTION
Frames: 4
Frame Time: 0.033333
-13.963898 16.643196 -50.993607 -100.471885 42.115155 3.666666 10.128624 -1.510606 1.459834 20.178824 -3.934195 0.188999 20.178815 -3.934210 0.189004 17.309180 4.627330 19.714800 21.087581 -1.189040 -2.010263 -0.000001 0.000001 0.000001 35.489448 -36.890931 40.376800 -71.238217 24.193794 -72.393441 -68.113611 -54.757456 -65.042321 -34.455726 1.768568 10.734861 -7.641471 -2.833337 7.955132 -1.782370 0.396029 2.675412 0.000005 0.000004 -0.000007 -0.000000 -0.000001 0.000002 1.326760 14.323579 -35.278405 0.973792 1.351880 -86.066223 -0.000000 0.000001 0.000001 -0.000000 0.000001 0.000001 -1.824599 -2.154916 -82.720489 -3.598680 -4.053624 -76.564372 -0.000000 0.000004 0.000001 -0.000000 -0.000001 -0.000001 -5.232456 9.502326 -90.234613 -3.003321 -5.022553 -67.500376 -0.000006 -0.000007 0.000006 -0.000000 -0.000000 0.000001 -16.334150 11.749367 -112.390134 -0.510037 -5.458623 -22.584475 -0.000002 0.000002 0.000001 -0.000000 0.000000 -0.000001 8.259510 -5.745679 7.197787 -11.776153 27.843596 63.319726 -134.159532 86.257735 133.734476 -21.098200 31.426534 1.647740 28.557656 -2.370950 8.821377 4.073068 -14.108284 -6.175984 0.000001 0.000006 0.000006 -0.000001 0.000000 0.000003 -3.182649 -2.910002 12.508330 0.247853 -1.412376 25.282999 0.000001 -0.000000 -0.000005 -0.000000 -0.000000 -0.000000 2.826465 -3.714681 41.539397 1.592242 4.024639 106.161193 0.000011 0.000000 0.000002 -0.000000 0.000000 0.000002 -0.095362 -4.555868 42.487878 -3.991062 6.501444 101.910425 0.000001 0.000002 -0.000001 0.000001 0.000001 -0.000002 -7.820987 -3.441020 40.924707 -8.624508 13.410289 105.518834 -0.000002 0.000003 0.000001 -0.000001 0.000001 0.000000 -46.450692 2.395635 17.518778 62.979610 1.758819 -2.664460 -6.076875 -10.343122 1.848455 9.810640 -0.016632 0.039195 -0.000001 0.000001 -0.000000 -22.650135 -33.905882 4.832324 40.281765 5.009716 1.167272 -20.433903 -0.409500 4.188812 12.677792 -0.219523 0.515519 -0.000002 0.000000 -0.000000 
-14.818640 16.214211 -54.671707 -107.289117 37.041940 11.329159 10.453690 -2.861615 -2.160021 20.941162 -5.689793 -2.403953 20.941143 -5.689785 -2.403966 16.016876 4.466592 18.550070 18.903022 0.580713 -5.005388 -0.000001 -0.000000 0.000003 29.546500 -30.738423 29.956735 -68.563037 15.272648 -78.436690 -73.683985 -58.777289 -72.521398 -32.271551 3.843538 20.067055 -8.140359 -7.191399 12.514893 -1.782366 0.396037 2.675406 0.000006 0.000006 -0.000009 -0.000000 -0.000001 0.000001 1.326760 14.323602 -35.278398 0.973804 1.351881 -86.066223 0.000000 -0.000001 0.000001 -0.000001 0.000001 0.000000 -1.824592 -2.154917 -82.720510 -3.598673 -4.053628 -76.564358 -0.000001 0.000004 0.000007 -0.000001 0.000000 0.000000 -5.232471 9.502334 -90.234620 -3.003315 -5.022548 -67.500383 -0.000005 -0.000006 0.000002 0.000000 0.000000 0.000002 -16.334158 11.749380 -112.390141 -0.510045 -5.458621 -22.584475 -0.000003 0.000002 0.000001 0.000000 -0.000001 0.000000 7.148099 -6.642522 3.119358 -4.038494 34.372944 57.911883 -172.514432 81.893203 172.100454 -29.253547 33.537175 -4.237206 28.557658 -2.370950 8.821391 4.073076 -14.108279 -6.175983 0.000002 0.000004 0.000001 0.000001 -0.000001 -0.000000 -3.182648 -2.910011 12.508336 0.247848 -1.412375 25.282992 0.000001 -0.000000 -0.000005 0.000000 -0.000000 -0.000000 2.826467 -3.714687 41.539397 1.592236 4.024632 106.161207 0.000012 0.000001 0.000001 0.000000 -0.000000 0.000001 -0.095353 -4.555878 42.487875 -3.991071 6.501450 101.910418 -0.000000 -0.000002 -0.000000 0.000000 -0.000001 -0.000002 -7.820986 -3.441029 40.924697 -8.624510 13.410282 105.518848 -0.000001 0.000000 0.000001 -0.000000 0.000001 0.000001 -36.717215 -5.797140 11.768897 54.982299 0.250244 -2.392898 -2.654631 -4.175322 2.069630 4.925694 -0.020781 0.051077 0.000000 -0.000000 -0.000000 -26.593186 -31.776526 1.202153 55.758850 3.381692 1.927739 -17.440195 2.575441 -4.437089 17.202429 -0.228487 0.538719 -0.000000 0.000001 -0.000001 
-15.059655 15.382133 -56.951244 -109.701683 29.440854 13.671479 10.277563 -3.204859 -4.491651 20.728774 -5.811421 -3.763770 20.728779 -5.811423 -3.763763 13.517168 4.523102 17.601379 12.023792 2.570648 -5.740769 0.000003 -0.000001 -0.000000 22.774291 -22.290819 19.982811 -66.653685 5.367900 -85.819961 -80.647554 -59.229652 -80.728444 -31.624257 0.283416 25.414548 -8.251025 -10.584193 15.775695 -1.782375 0.396044 2.675406 0.000005 0.000006 -0.000005 -0.000000 0.000000 -0.000000 1.326763 14.323585 -35.278402 0.973788 1.351872 -86.066217 -0.000000 -0.000000 0.000002 -0.000001 -0.000000 -0.000001 -1.824622 -2.154915 -82.720503 -3.598680 -4.053620 -76.564385 -0.000001 0.000004 0.000010 -0.000000 0.000000 -0.000003 -5.232456 9.502317 -90.234620 -3.003322 -5.022537 -67.500383 -0.000006 -0.000007 0.000002 -0.000000 0.000001 0.000001 -16.334172 11.749375 -112.390121 -0.510045 -5.458656 -22.584480 -0.000002 0.000003 -0.000001 -0.000000 0.000000 -0.000003 5.911309 -6.898116 -1.285320 2.694418 34.974332 48.566610 -174.384346 74.437150 174.747398 -31.169927 33.941604 -7.431526 28.557653 -2.370936 8.821395 4.073062 -14.108292 -6.175992 0.000001 0.000009 0.000007 -0.000000 -0.000001 -0.000001 -3.182647 -2.910000 12.508328 0.247848 -1.412375 25.282995 0.000002 -0.000000 -0.000005 -0.000000 -0.000000 -0.000000 2.826458 -3.714666 41.539394 1.592236 4.024622 106.161220 0.000012 -0.000000 -0.000002 0.000000 0.000000 -0.000000 -0.095361 -4.555863 42.487885 -3.991075 6.501441 101.910411 -0.000000 -0.000000 0.000001 0.000000 0.000001 0.000001 -7.820986 -3.441017 40.924704 -8.624508 13.410289 105.518807 -0.000001 0.000000 0.000000 -0.000002 0.000000 -0.000001 -30.546508 -11.494939 12.617694 52.599816 0.215321 -1.871005 -4.236641 0.756526 -1.255304 3.705318 -0.021924 0.053971 0.000001 0.000002 0.000000 -33.718410 -29.784478 -0.804751 70.357382 3.315533 2.587882 -13.628469 -0.080228 -2.617691 13.966351 -0.222225 0.522221 -0.000002 -0.000001 0.000000 
-14.859831 15.323677 -57.878937 -108.914313 22.418255 14.049159 9.534906 -3.368729 -5.942237 19.328286 -5.679531 -4.699600 19.328296 -5.679531 -4.699595 10.388499 4.330403 17.547898 1.815289 2.003747 -3.855069 -0.000001 0.000000 -0.000000 15.991790 -12.799812 12.431718 -62.697838 -4.039894 -92.559001 -90.133560 -57.508636 -91.603594 -30.711269 -6.397908 27.682608 -7.884867 -13.207371 19.015841 -1.782367 0.396027 2.675407 0.000006 0.000007 -0.000009 -0.000001 0.000002 -0.000003 1.326755 14.323591 -35.278395 0.973817 1.351878 -86.066223 -0.000000 0.000000 -0.000001 -0.000001 -0.000000 -0.000002 -1.824595 -2.154917 -82.720517 -3.598687 -4.053631 -76.564358 -0.000001 0.000003 0.000011 0.000000 -0.000000 0.000002 -5.232461 9.502325 -90.234633 -3.003322 -5.022541 -67.500376 -0.000006 -0.000007 0.000002 0.000000 0.000000 -0.000001 -16.334170 11.749376 -112.390121 -0.510043 -5.458640 -22.584478 -0.000001 -0.000000 0.000003 0.000000 0.000001 -0.000002 4.810653 -6.761205 -5.044758 6.774154 32.288145 42.352818 -169.334624 68.152953 170.722682 -27.340779 34.669917 -6.639168 28.557656 -2.370951 8.821394 4.073084 -14.108269 -6.175976 0.000001 0.000005 0.000004 0.000000 0.000005 0.000001 -3.182646 -2.910003 12.508352 0.247842 -1.412370 25.282992 0.000002 -0.000000 -0.000005 0.000000 0.000000 -0.000000 2.826464 -3.714677 41.539407 1.592242 4.024634 106.161193 0.000012 -0.000000 -0.000002 0.000000 -0.000001 0.000000 -0.095368 -4.555862 42.487888 -3.991072 6.501425 101.910425 -0.000000 0.000000 -0.000000 0.000000 0.000000 -0.000000 -7.820983 -3.441027 40.924711 -8.624508 13.410298 105.518862 0.000000 -0.000000 0.000001 -0.000004 0.000000 -0.000001 -29.278381 -11.206918 17.393714 54.925789 0.410727 -1.724208 -7.738543 3.445891 -3.056274 4.780706 -0.020708 0.051424 0.000000 0.000002 0.000001 -42.622081 -29.267316 -4.248789 82.221373 3.898056 3.060953 -10.141167 -0.600939 8.285200 6.186389 -0.204206 0.480875 -0.000001 -0.000002 -0.000003 
